<svg xmlns="http://www.w3.org/2000/svg" width="143" height="30" fill="none" viewBox="0 0 143 30"><path fill="#12110c" d="M72.663 7.732c.556.008.973.346 1.086.882.12.567-.136 1.154-.598 1.367-.867.339-1.036.53-1.395 1.578-.5 1.427-1 2.87-1.5 4.316l-.564 1.624c-.43 1.246-1.331 3.872-2.678 7.804l-.105.308c-1.116 3.285-2.9 3.777-3.863 3.777s-1.63-.489-1.918-1.34c-.303-.897-.048-1.975.58-2.457.306-.235.967-.527 1.956.138.298.201.53.271.707.212.216-.072.409-.35.573-.826.172-.474.646-1.8.667-1.87.22-.651.197-1.023-.117-1.898l-.668-1.844c-.992-2.74-1.85-5.106-2.872-7.727-.455-1.188-.67-1.475-1.352-1.81-.553-.29-.683-.92-.574-1.384.123-.515.51-.84 1.011-.848h4.702c.4 0 .741.25.87.635a.86.86 0 0 1-.297.976q-.043.031-.085.058l-.09.051c-.447.262-1.28.748-1.28 2.653 0 2.873 1.43 4.44 2.164 4.44s2.165-1.567 2.165-4.44c0-1.905-.834-2.392-1.28-2.653q-.05-.027-.089-.052-.046-.027-.088-.06a.86.86 0 0 1-.296-.972.91.91 0 0 1 .872-.636h4.174v-.003zm18.39-.196q.59-.332.98-.152.373.175.487.789c.059.3.189.507.356.566.19.067.405-.065.552-.19.948-.814 1.877-1.212 2.837-1.212v.003c2.578 0 5.352 2.409 5.352 7.7 0 2.467-.615 4.54-1.777 5.997a5.61 5.61 0 0 1-4.461 2.15c-.738 0-1.28-.172-2.02-.488-.14-.056-.335-.11-.433-.043-.07.048-.154.199-.154.642v.758c0 2.19.04 2.291 1.077 2.677.568.231.74.81.657 1.283-.08.465-.429.944-1.025.97-.678.01-1.445.015-2.212.015-.766 0-1.538-.005-2.232-.016-.473-.023-.862-.375-.975-.88-.12-.545.11-1.059.586-1.31l.046-.02c.934-.425 1.092-.592 1.113-3.005.022-3.976.022-6.316 0-10.015 0-1.841-.25-2.106-1.199-2.825a1.22 1.22 0 0 1-.468-1.027c.025-.403.255-.78.617-1.005a62 62 0 0 1 2.297-1.362m-8.372-5.731c1.225 0 2.444.257 3.258.688.845.454 1.156 1.006 1.15 2.032-.01.71-.023 2.015-.023 3.208-.003.855-.486 1.286-.963 1.333-.45.045-.975-.248-1.13-1.006-.63-3.177-1.445-3.797-2.643-3.797-1.37 0-2.186.92-2.186 2.463 0 1.627.866 2.805 3.091 4.2 3.686 2.303 4.44 4.22 4.44 6.39 0 3.569-2.256 5.875-5.75 5.875-1.851 0-3.374-.61-4.114-1.133-.88-.63-1.042-.994-1.025-2.291v-.078c.012-.766.028-1.817.031-2.887.014-.829.531-1.238 1.006-1.27.453-.033.96.276 1.073 1.029.568 3.794 2.09 4.233 3.187 4.233 1.482 0 2.478-.987 2.478-2.456 0-1.555-.906-2.727-3.227-4.18-3.057-1.905-4.361-3.883-4.361-6.612 0-3.541 2.186-5.741 5.708-5.741M55.309 7.328c1.232 0 2.396.493 3.28 1.388 1.09 1.105 1.678 2.721 1.655 4.55 0 .68-.231 1.495-1.335 1.495h-5.761c-.194 0-.336.053-.435.16-.143.157-.202.442-.17.827.207 2.783 1.43 4.444 3.272 4.444 1.034 0 1.94-.51 2.692-1.515.322-.41.767-.531 1.135-.314.38.224.613.811.324 1.498-1.292 3.002-3.812 3.326-4.836 3.326-1.724 0-3.197-.733-4.26-2.12-1.075-1.405-1.643-3.463-1.643-5.728 0-2.266.654-4.33 1.842-5.813 1.12-1.397 2.666-2.198 4.24-2.198m53.343.008c3.577 0 6.173 3.333 6.173 7.924 0 2.195-.627 4.204-1.764 5.656-1.147 1.462-2.736 2.269-4.473 2.269-3.59 0-6.194-3.322-6.193-7.897v-.076c.013-2.176.643-4.164 1.775-5.605 1.151-1.464 2.744-2.271 4.482-2.271m13.181 0c3.577 0 6.173 3.333 6.173 7.924 0 2.195-.627 4.204-1.765 5.656-1.146 1.462-2.735 2.269-4.472 2.269-3.59 0-6.196-3.322-6.195-7.897v-.072c.013-2.176.642-4.167 1.776-5.609 1.151-1.464 2.743-2.271 4.482-2.271zm-94.796 0a3.47 3.47 0 0 1 2.483 1.03c.848.854 1.289 2.14 1.278 3.719-.022 2.66-.018 4.272 0 6.877 0 .454.111.772.304.872.137.073.334.036.558-.102v-.02l.102-.049a.76.76 0 0 1 .865.133c.26.244.438.751.16 1.442-.358.896-1.238 1.943-2.542 1.943-.822 0-1.505-.413-2.03-1.225q-.164-.243-.287-.259c-.1-.013-.246.06-.447.226-.907.795-1.684 1.258-2.964 1.258-1.982 0-3.165-1.283-3.165-3.382s1.169-3.08 3.188-4.06l1.123-.55c.6-.293.996-.489 1.468-.703.517-.234.7-.579.7-1.316v-1.066c-.001-.837-.184-1.443-.545-1.8-.277-.275-.677-.415-1.177-.407-.51.015-1.376.184-1.399 1.128 0 .17.006.334.014.523q.007.172.014.388c.006.986-.35 1.758-.974 2.123a1.42 1.42 0 0 1-1.438.02c-.506-.293-.797-.871-.797-1.59 0-2.36 2.986-5.153 5.508-5.153m-8.48-5.176c.515 0 .911.337 1.043.88.119.496-.013 1.164-.586 1.46-1.086.499-1.213.864-1.141 2.058.2 3.565.415 6.694.696 10.587.191 2.713.381 2.864 1.496 3.305l.018.008h.003c.577.258.73.881.623 1.38-.12.558-.524.932-1.008.932-1.736-.027-3.16-.014-4.669 0h-.11c-.55-.007-.975-.385-1.085-.962-.1-.524.094-1.174.655-1.404 1.093-.386 1.19-.487 1.045-2.801-.128-2.011-.252-3.726-.427-5.916-.025-.293-.147-.44-.256-.454-.105-.014-.25.09-.341.344a1072 1072 0 0 0-1.89 5.554 865 865 0 0 0-1.674 4.993c-.205.605-.63.978-1.113.978h-.013c-.482-.008-.899-.386-1.084-.989-1.134-3.707-2.173-7.084-3.407-10.857-.075-.225-.195-.316-.28-.306-.103.012-.228.169-.257.483-.178 2.12-.322 4.089-.452 6.198-.141 2.334-.066 2.416.968 2.765.611.246.814.928.705 1.477-.114.57-.521.93-1.04.926-.96-.044-2.152-.026-3.205-.01q-.399.006-.77.01c-.457 0-.844-.363-.965-.902-.114-.508.031-1.144.611-1.42 1.202-.488 1.364-.706 1.55-3.357.164-2.146.324-4.465.487-6.851l.22-3.291c.102-1.732-.148-2.047-1.174-2.543-.458-.26-.676-.88-.516-1.448a1.09 1.09 0 0 1 1.136-.826c.25.007.473.014.68.022.535.018.958.032 1.484.032.845 0 1.313.368 1.565 1.23 1.057 3.644 2.23 7.266 3.365 10.768l.505 1.56c.146.445.317.604.418.604.114-.001.29-.192.429-.618l.292-.882c.473-1.43.962-2.908 1.447-4.395a656 656 0 0 0 2.29-7.095c.255-.822.684-1.173 1.434-1.173a99 99 0 0 0 2.299-.054m112.746 5.38c.374-.224.694-.28.95-.166.251.112.417.376.496.784.041.216.132.492.336.574.185.076.455-.006.778-.234 1.547-1.11 3.247-1.37 4.546-.692.745.388 1.992 1.437 1.961 4.086a222 222 0 0 0-.005 5.637c.029 2.523.122 2.632 1.125 3.034.551.248.704.82.614 1.277-.088.45-.437.914-1.02.935a212 212 0 0 1-4.393 0c-.485-.014-.882-.383-.992-.916-.096-.47.056-1.059.611-1.317.951-.372 1.056-.497 1.099-3.03.022-1.492.022-3.212 0-4.84-.02-1.23-.497-2.172-1.275-2.515-.65-.286-1.424-.095-2.125.526-.632.554-.952 1.523-.982 2.964a120 120 0 0 0 0 3.883c.06 2.54.138 2.631 1.148 3.047.532.255.672.824.579 1.276-.111.533-.517.903-1.01.921-1.464.015-2.944.015-4.403 0-.496-.018-.887-.368-.999-.894-.099-.461.042-1.046.58-1.312l.171-.085.007.015c.79-.332.93-.594.965-2.938.02-1.253.02-2.559 0-4.11-.021-1.66-.225-1.863-1.087-2.45-.362-.267-.557-.657-.54-1.075.018-.42.254-.81.628-1.038.636-.366 1.158-.686 1.711-1.025zm-94.7-.01c.38-.215.688-.263.939-.151.245.11.408.36.496.769.092.336.222.545.372.595.182.06.433-.097.61-.238.809-.642 1.512-1.174 2.418-1.174s1.576.48 1.837 1.317v.004c.316 1.012-.036 2.255-.785 2.773-.33.228-1.026.502-1.968-.236-.295-.236-.736-.474-1.165-.271-.63.298-1.02 1.396-1.04 2.937a105 105 0 0 0 0 3.682c.035 2.387.095 2.495 1.59 2.905.651.204.87.807.801 1.316-.066.488-.413.99-1.037 1.01-.917.011-1.84.016-2.702.016s-1.668-.005-2.36-.015c-.474-.024-.862-.39-.97-.914-.115-.552.114-1.06.585-1.293l.012-.005c.927-.373 1.081-.506 1.12-3.006a125 125 0 0 0 0-4.117c-.023-1.668-.277-1.915-1.08-2.442-.363-.254-.562-.635-.55-1.047.012-.423.244-.816.623-1.052l.178-.112a47 47 0 0 1 2.076-1.252M45.603.243c.437-.269.853-.317 1.171-.138.256.144.562.496.562 1.355-.023 5.977-.018 10.772.017 16.035.044 2.521.085 2.636 1.113 3.044l.04.019v-.001c.525.26.669.828.577 1.284-.109.537-.52.907-1.022.922a214 214 0 0 1-4.415 0c-.485-.014-.87-.364-.982-.89-.099-.468.039-1.057.572-1.315l.012-.004c.977-.394 1.104-.55 1.14-3.33.045-2.756.027-4.928.01-7.442-.01-1.188-.018-2.417-.022-3.82-.006-1.308-.17-1.648-1.099-2.27-.363-.264-.558-.65-.544-1.065.015-.408.235-.783.592-1.007.82-.477 1.52-.893 2.278-1.377M121.55 9.54c-.497 0-.968.217-1.365.627-.892.92-1.344 2.674-1.274 4.938.127 3.856 1.662 5.874 3.114 5.875.482 0 .944-.216 1.338-.622.898-.927 1.372-2.756 1.303-5.018-.121-3.808-1.659-5.8-3.116-5.8m-13.18 0c-.497 0-.968.216-1.365.626-.892.922-1.344 2.675-1.274 4.939.126 3.855 1.663 5.873 3.115 5.874.481 0 .943-.216 1.338-.623.896-.926 1.372-2.755 1.301-5.017-.12-3.808-1.658-5.8-3.115-5.8m-13.056.503c-1.45 0-2.543 1.46-2.543 3.396v4.364c0 1.708 1.255 3.153 2.742 3.153h.067c1.81-.042 2.806-1.844 2.806-5.085 0-3.541-1.206-5.828-3.073-5.828M27.52 16.569q-.153 0-.408.102c-2.176.873-2.456 1.781-2.456 2.474 0 .823.356 1.24 1.058 1.24.86 0 2.104-.886 2.104-2.49v-.668c0-.425-.084-.572-.156-.622a.25.25 0 0 0-.143-.036M55.02 9.544c-1.261 0-2.086 1.235-2.341 2.459h.002c-.046.216-.024.392.06.496q.08.1.229.1h3.6q.178 0 .27-.104c.1-.109.14-.308.118-.575-.191-2.206-1.532-2.376-1.938-2.376"/></svg>